<?xml version="1.0" encoding="UTF-8"?>
<!DOCTYPE svg PUBLIC "-//W3C//DTD SVG 1.1//EN" "http://www.w3.org/Graphics/SVG/1.1/DTD/svg11.dtd">
<!-- Creator: CorelDRAW X7 -->
<svg xmlns="http://www.w3.org/2000/svg" xml:space="preserve" width="50mm" height="20mm" version="1.1" style="shape-rendering:geometricPrecision; text-rendering:geometricPrecision; image-rendering:optimizeQuality; fill-rule:evenodd; clip-rule:evenodd"
viewBox="0 0 5000 2000"
 xmlns:xlink="http://www.w3.org/1999/xlink">
 <defs>
  <style type="text/css">
   <![CDATA[
    .fil1 {fill:#EE4622}
    .fil0 {fill:white}
    .fil2 {fill:black;fill-opacity:0.027451}
    .fil4 {fill:black;fill-opacity:0.090196}
    .fil3 {fill:white;fill-opacity:0.215686}
    .fil5 {fill:white;fill-opacity:0.360784}
   ]]>
  </style>
 </defs>
 <g id="Layer_x0020_1">
  <metadata id="CorelCorpID_0Corel-Layer"/>
  <g id="_397671792">
   <g>
    <path class="fil0" d="M621 751l0 434c0,28 -10,54 -27,73 -16,19 -39,30 -63,30 -23,0 -46,-11 -63,-30 -16,-19 -26,-45 -26,-73l0 -434c0,-28 9,-54 26,-74 17,-19 40,-30 63,-30 15,0 30,4 43,12 0,0 0,1 0,1 0,0 0,0 1,0 7,4 14,10 20,17 8,10 15,21 19,34 5,12 7,26 7,40z"/>
    <path class="fil1" d="M825 844l0 435c0,14 -2,27 -6,40 -5,12 -11,24 -20,33 -8,10 -18,18 -29,23 -11,5 -22,8 -34,8 -12,0 -23,-3 -34,-8 -11,-5 -21,-13 -29,-23 -9,-9 -15,-21 -20,-33 -4,-13 -7,-26 -7,-40l0 -435c0,-13 3,-27 7,-39 5,-13 11,-24 20,-34 8,-10 18,-17 29,-22 11,-6 22,-8 34,-8 3,0 6,0 9,0l1 0c21,3 42,15 57,34 14,19 22,44 22,69l0 0z"/>
    <path class="fil0" d="M1031 721l0 435c0,27 -9,54 -26,73 -17,19 -40,30 -63,30 -24,0 -47,-11 -64,-30 -16,-19 -26,-46 -26,-73l0 -435c0,-14 2,-27 7,-40 4,-12 11,-24 19,-33 9,-10 19,-18 29,-23 11,-5 23,-8 35,-8 3,0 7,1 11,1l0 0c20,3 38,13 52,30 8,9 15,21 19,33 5,13 7,26 7,40z"/>
    <path class="fil1" d="M1236 840l0 434c0,14 -3,27 -7,40 -5,12 -11,24 -20,33 -8,10 -18,18 -29,23 -10,5 -22,8 -34,8 -12,0 -23,-3 -34,-8 -11,-5 -21,-13 -29,-23 -8,-9 -15,-21 -19,-33 -5,-13 -7,-26 -7,-40l0 -434c0,-14 2,-28 7,-40 4,-13 11,-24 19,-34 8,-10 18,-17 29,-22 11,-6 22,-8 34,-8 12,0 24,2 35,8l0 0c0,0 0,0 0,0 11,5 20,13 28,22 9,10 15,21 20,34 4,12 7,26 7,40z"/>
    <g>
     <g>
      <path class="fil2" d="M621 876l0 309c0,28 -10,54 -27,73 -16,19 -39,30 -63,30 -23,0 -46,-11 -63,-30 -16,-19 -26,-45 -26,-73l0 -18c0,0 0,3 1,8 0,4 0,12 1,20 2,10 5,20 9,30 7,16 18,30 32,40 13,10 29,15 45,15 7,0 14,-2 21,-4 15,-5 29,-14 39,-27 11,-14 18,-30 20,-48 0,-3 1,-4 1,-7l0 -8c0,-4 0,-10 0,-14 0,-10 1,-21 1,-31 0,-20 0,-39 0,-59 1,-38 2,-74 3,-104 3,-61 6,-102 6,-102z"/>
     </g>
    </g>
    <g>
     <g>
      <path class="fil3" d="M574 660c-3,-2 -6,-3 -10,-4 -9,-2 -18,-3 -27,-3 -3,1 -6,1 -9,2 -3,0 -6,1 -9,1 -20,6 -37,19 -50,37 -5,7 -8,13 -11,21 -3,7 -5,14 -6,22 -1,4 -2,8 -2,12l0 3c0,0 0,2 -1,2 0,2 0,4 0,6 0,8 -1,16 -2,23 -1,15 -3,30 -5,45l0 -76c0,-18 4,-36 12,-52 7,-15 18,-28 32,-38 13,-9 28,-14 44,-14 15,0 31,4 44,13z"/>
     </g>
    </g>
    <g>
     <g>
      <path class="fil4" d="M825 969l0 310c0,14 -2,27 -6,40 -5,12 -11,24 -20,33 -8,10 -18,18 -29,23 -11,5 -22,8 -34,8 -12,0 -23,-3 -34,-8 -11,-5 -21,-13 -29,-23 -9,-9 -15,-21 -20,-33 -4,-13 -7,-26 -7,-40l0 -13c0,0 1,3 1,8 0,7 1,13 2,20 5,23 16,44 32,58 10,10 22,16 35,20 4,0 7,1 10,1 4,1 8,1 11,1 8,-1 15,-2 22,-5 14,-5 27,-15 37,-29 10,-13 17,-30 19,-48 0,-5 1,-9 1,-14l0 -15c0,-10 0,-20 0,-30 0,-20 1,-40 1,-59 1,-38 2,-73 3,-104 2,-60 5,-101 5,-101z"/>
     </g>
    </g>
    <g>
     <g>
      <path class="fil5" d="M745 741c-1,0 -4,1 -9,2 -3,1 -7,1 -11,3 -4,1 -9,3 -13,5 -5,3 -10,6 -14,9 -5,4 -10,8 -14,12 -4,5 -8,11 -12,17 -4,6 -7,12 -9,19 -3,6 -5,13 -6,20 -1,4 -1,8 -1,11l-1 6 0 5c-1,16 -2,30 -3,42 -1,14 -3,28 -6,42l0 -90c0,-13 3,-27 7,-39 5,-13 11,-24 20,-34 8,-10 18,-17 29,-22 11,-6 22,-8 34,-8 3,0 6,0 9,0z"/>
     </g>
    </g>
    <g>
     <g>
      <path class="fil4" d="M1031 765l0 391c0,27 -9,54 -26,73 -17,19 -40,30 -63,30 -24,0 -47,-11 -64,-30 -16,-19 -26,-46 -26,-73l0 -9c0,0 0,3 1,8 0,7 1,15 3,22 3,11 7,22 13,31 7,12 17,22 28,30 13,8 27,13 42,13 8,0 16,-1 23,-4 8,-3 16,-7 22,-12 15,-11 26,-26 32,-45l2 -7 2 -7c0,-2 0,-5 1,-7 0,-3 0,-5 0,-8 1,-10 0,-22 0,-33 1,-23 1,-46 1,-68 0,-22 0,-44 1,-65 0,-43 1,-82 3,-116 2,-68 5,-114 5,-114z"/>
     </g>
    </g>
    <g>
     <g>
      <path class="fil5" d="M953 618c-2,0 -5,1 -9,2 -3,0 -7,1 -11,2 -5,1 -9,3 -13,5 -5,3 -10,5 -15,9 -5,3 -9,7 -14,12 -2,2 -4,5 -6,7 -2,3 -4,6 -6,9 -4,5 -7,12 -10,18 -2,7 -5,14 -6,21 0,4 -1,6 -2,11l0 5 0 2 0 0 0 0 0 1 0 3c-1,15 -2,30 -3,42 -1,14 -3,28 -6,41l0 -87c0,-14 2,-27 7,-40 4,-12 11,-24 19,-33 9,-10 19,-18 29,-23 11,-5 23,-8 35,-8 3,0 7,1 11,1z"/>
     </g>
    </g>
    <g>
     <g>
      <path class="fil5" d="M1181 744c-1,0 -5,-1 -10,-2 -3,0 -7,-1 -12,-1 -4,0 -9,1 -14,1 -6,1 -11,3 -17,4 -5,3 -11,5 -16,9 -12,7 -22,17 -30,29 -4,6 -7,13 -10,20 -2,7 -4,14 -6,21 0,4 -1,8 -1,11l0 3 -1 1 0 0 0 2c0,1 0,3 0,5 -1,8 -1,15 -2,21 -1,15 -3,29 -5,43l0 -71c0,-14 2,-28 7,-40 4,-13 11,-24 19,-34 8,-10 18,-17 29,-22 11,-6 22,-8 34,-8 12,0 24,2 35,8z"/>
     </g>
    </g>
    <g>
     <g>
      <path class="fil4" d="M1236 995l0 279c0,14 -3,27 -7,40 -5,12 -11,24 -20,33 -8,10 -18,18 -29,23 -10,5 -22,8 -34,8 -12,0 -23,-3 -34,-8 -11,-5 -21,-13 -29,-23 -8,-9 -15,-21 -19,-33 -5,-13 -7,-26 -7,-40 0,0 0,2 1,7 0,3 0,5 1,8 1,3 1,7 2,10 5,17 14,33 26,45 12,12 26,20 41,23 4,1 7,1 10,2l5 0 4 0 1 -1c7,0 14,-1 20,-4 14,-4 26,-13 36,-25 5,-6 9,-13 12,-20 4,-8 6,-16 8,-24 1,-4 1,-8 2,-12l0 -7 0 -2 0 -1 0 -4c0,-9 0,-18 0,-28 0,-18 1,-37 1,-54 1,-36 2,-69 3,-97 2,-57 6,-95 6,-95z"/>
     </g>
    </g>
   </g>
   <g>
    <path class="fil1" d="M1571 830l115 0c27,0 51,4 73,12 21,8 40,20 55,35 15,15 27,33 35,54 8,21 12,44 12,69 0,25 -4,49 -12,70 -8,20 -20,38 -35,53 -15,15 -34,27 -55,35 -22,8 -46,13 -73,13l-115 0 0 -341zm112 280c19,0 35,-3 49,-8 15,-5 27,-13 36,-22 10,-10 17,-21 22,-35 4,-13 7,-28 7,-45 0,-17 -3,-31 -7,-45 -5,-13 -12,-25 -22,-35 -9,-9 -21,-16 -36,-21 -14,-6 -30,-9 -49,-9l-48 0 0 220 48 0zm355 68c-20,0 -39,-3 -55,-9 -16,-7 -30,-17 -42,-29 -11,-12 -20,-27 -26,-45 -7,-18 -10,-38 -10,-60l0 -205 65 0 0 209c0,11 1,21 4,31 3,10 7,18 13,25 5,7 13,12 21,16 9,4 19,6 30,6 11,0 21,-2 30,-6 8,-4 15,-9 21,-16 6,-7 10,-15 13,-25 3,-10 4,-20 4,-31l0 -209 64 0 0 205c0,21 -3,41 -9,58 -6,18 -15,33 -27,46 -11,12 -25,22 -42,29 -16,7 -34,10 -54,10zm193 -348l64 0 104 180 4 0 104 -180 64 0 0 341 -64 0 0 -169 4 -57 -4 0 -87 153 -38 0 -87 -153 -4 0 4 57 0 169 -64 0 0 -341zm409 0l133 0c15,0 28,2 41,7 13,4 24,10 33,19 9,8 17,17 22,28 6,11 8,22 8,35 0,18 -4,33 -13,45 -8,12 -19,22 -32,28l0 4c17,6 31,16 42,30 10,13 16,30 16,50 0,14 -3,28 -9,39 -6,12 -14,22 -24,30 -10,8 -22,14 -36,19 -13,4 -28,7 -43,7l-138 0 0 -341zm128 139c15,0 27,-4 35,-12 8,-9 12,-18 12,-29 0,-11 -4,-21 -12,-29 -8,-8 -19,-12 -33,-12l-66 0 0 82 64 0zm7 142c17,0 29,-4 38,-11 8,-9 13,-19 13,-32 0,-13 -5,-23 -14,-31 -8,-9 -21,-13 -38,-13l-70 0 0 87 71 0z"/>
    <path class="fil0" d="M3044 1178c-15,0 -29,-2 -42,-6 -14,-4 -26,-10 -37,-19 -11,-8 -21,-18 -29,-30 -8,-12 -15,-26 -20,-42l61 -23c4,17 12,31 23,42 11,12 26,17 44,17 7,0 13,-1 19,-2 6,-2 12,-5 17,-8 5,-3 9,-8 12,-13 3,-5 4,-11 4,-17 0,-7 -1,-12 -3,-17 -3,-6 -6,-10 -12,-15 -5,-4 -12,-8 -20,-13 -9,-4 -19,-8 -31,-12l-21 -8c-9,-3 -19,-8 -28,-13 -9,-5 -18,-12 -26,-19 -7,-8 -13,-17 -19,-27 -4,-11 -7,-22 -7,-35 0,-14 3,-26 8,-38 5,-11 13,-21 22,-30 10,-9 22,-16 35,-20 14,-6 29,-8 45,-8 17,0 32,2 45,7 12,4 23,10 31,18 9,7 17,14 22,23 5,9 9,17 12,24l-57 24c-3,-9 -9,-18 -17,-26 -9,-7 -20,-11 -35,-11 -14,0 -25,3 -35,10 -9,6 -13,15 -13,25 0,10 4,19 13,26 9,7 23,14 42,21l22 7c13,5 26,10 37,17 11,6 21,13 29,22 8,8 14,18 19,29 4,11 6,23 6,38 0,18 -3,33 -11,46 -7,13 -16,23 -27,31 -11,9 -23,15 -37,19 -14,4 -28,6 -41,6zm331 0c-26,0 -49,-4 -71,-14 -22,-9 -41,-21 -56,-37 -16,-17 -29,-35 -38,-57 -9,-22 -13,-45 -13,-70 0,-25 4,-48 13,-70 9,-21 22,-40 38,-56 15,-16 34,-29 56,-38 22,-10 45,-14 71,-14 25,0 49,4 70,14 22,9 41,22 57,38 16,16 28,35 37,56 9,22 14,45 14,70 0,25 -5,48 -14,70 -9,22 -21,40 -37,57 -16,16 -35,28 -57,37 -21,10 -45,14 -70,14zm0 -61c16,0 30,-3 44,-8 14,-6 26,-14 36,-24 11,-10 19,-23 24,-37 6,-14 9,-31 9,-48 0,-17 -3,-33 -9,-48 -5,-14 -13,-27 -24,-37 -10,-10 -22,-18 -36,-24 -14,-5 -28,-8 -44,-8 -16,0 -31,3 -45,8 -14,6 -26,14 -36,24 -10,10 -19,23 -25,37 -5,15 -8,31 -8,48 0,17 3,34 8,48 6,14 15,27 25,37 10,10 22,18 36,24 14,5 29,8 45,8zm355 61c-20,0 -39,-3 -55,-9 -16,-7 -30,-17 -42,-29 -11,-12 -20,-27 -26,-45 -7,-18 -10,-38 -10,-60l0 -205 64 0 0 209c0,11 2,21 5,31 3,10 7,18 13,25 5,7 12,12 21,16 9,4 18,6 30,6 11,0 21,-2 30,-6 8,-4 15,-9 21,-16 6,-7 10,-15 13,-25 3,-10 4,-20 4,-31l0 -209 64 0 0 205c0,21 -3,41 -9,58 -6,18 -15,33 -27,46 -11,12 -25,22 -42,29 -16,7 -34,10 -54,10zm193 -348l75 0 137 228 4 0 -4 -66 0 -162 64 0 0 341 -67 0 -145 -242 -4 0 4 66 0 176 -64 0 0 -341zm345 0l115 0c27,0 51,4 73,12 21,8 40,20 55,35 15,15 27,33 35,54 8,21 12,44 12,69 0,25 -4,49 -12,70 -8,20 -20,38 -35,53 -15,15 -34,27 -55,35 -22,8 -46,13 -73,13l-115 0 0 -341zm112 280c19,0 35,-3 49,-8 15,-5 27,-13 36,-22 10,-10 17,-21 22,-35 4,-13 7,-28 7,-45 0,-17 -3,-31 -7,-45 -5,-13 -12,-25 -22,-35 -9,-9 -21,-16 -36,-21 -14,-6 -30,-9 -49,-9l-48 0 0 220 48 0z"/>
   </g>
  </g>
 </g>
</svg>
